<?xml version="1.0" encoding="UTF-8" standalone="no"?>
<!-- Created with Inkscape (http://www.inkscape.org/) -->

<svg
   xmlns:dc="http://purl.org/dc/elements/1.1/"
   xmlns:cc="http://creativecommons.org/ns#"
   xmlns:rdf="http://www.w3.org/1999/02/22-rdf-syntax-ns#"
   xmlns:svg="http://www.w3.org/2000/svg"
   xmlns="http://www.w3.org/2000/svg"
   xmlns:sodipodi="http://sodipodi.sourceforge.net/DTD/sodipodi-0.dtd"
   xmlns:inkscape="http://www.inkscape.org/namespaces/inkscape"
   version="1.1"
   id="svg10"
   width="903.9726"
   height="152.67651"
   viewBox="0 0 903.9726 152.67651"
   sodipodi:docname="logotext.svg"
   inkscape:version="0.92.5 (2060ec1f9f, 2020-04-08)">
  <metadata
     id="metadata16">
    <rdf:RDF>
      <cc:Work
         rdf:about="">
        <dc:format>image/svg+xml</dc:format>
        <dc:type
           rdf:resource="http://purl.org/dc/dcmitype/StillImage" />
      </cc:Work>
    </rdf:RDF>
  </metadata>
  <defs
     id="defs14" />
  <sodipodi:namedview
     pagecolor="#ffffff"
     bordercolor="#666666"
     borderopacity="1"
     objecttolerance="10"
     gridtolerance="10"
     guidetolerance="10"
     inkscape:pageopacity="0"
     inkscape:pageshadow="2"
     inkscape:window-width="1920"
     inkscape:window-height="1001"
     id="namedview12"
     showgrid="false"
     inkscape:zoom="0.8396893"
     inkscape:cx="116.04439"
     inkscape:cy="31.400333"
     inkscape:window-x="-9"
     inkscape:window-y="-9"
     inkscape:window-maximized="1"
     inkscape:current-layer="svg10" />
  <g
     id="g122"
     transform="translate(-105.11985,-78.915152)"
     style="stroke-width:2.5;stroke-miterlimit:4;stroke-dasharray:none;stroke:none;stroke-opacity:1">
    <path
       style="fill:#eccf92;stroke-width:2.5;stroke-miterlimit:4;stroke-dasharray:none;stroke:none;stroke-opacity:1"
       d="m 269.72409,229.85896 c -14.26921,-4.66076 -22.85601,-14.16701 -27.19762,-30.10986 -2.21186,-8.12216 -2.50417,-29.89496 -0.50937,-37.94002 5.88637,-23.73981 24.81643,-37.04408 50.8552,-35.74163 7.82919,0.39161 10.24212,0.95318 15.75327,3.66631 11.06225,5.44593 17.09751,15.97213 18.21194,31.76379 l 0.584,8.2753 -24.39726,0.26812 -24.39725,0.26811 -0.2931,7.80746 c -0.75038,19.98854 8.42044,32.57275 22.86549,31.37605 6.64235,-0.55029 12.17603,-3.20529 16.87378,-8.09588 3.61816,-3.76668 6.45776,-4.58333 7.3999,-2.12816 0.96453,2.51351 -6.27018,15.37336 -11.88309,21.12246 -8.08744,8.28366 -14.43013,10.86042 -27.46298,11.15705 -8.15185,0.18553 -11.82008,-0.19221 -16.40291,-1.6891 z m 27.63254,-74.04988 c -0.30581,-9.61436 -2.50353,-19.54019 -4.91695,-22.20699 -3.78168,-4.17871 -9.23943,-0.29864 -11.75014,8.35352 -1.8459,6.36111 -3.78122,20.69061 -2.97142,22.0009 0.31376,0.50767 4.92161,0.79469 10.23967,0.63781 l 9.66921,-0.28524 z M 440.127,230.84123 c -34.94489,-4.477 -54.48935,-24.35458 -58.04853,-59.03793 -4.46275,-43.48837 21.48243,-76.167474 64.33081,-81.027516 17.69789,-2.007369 33.62875,1.763847 45.41274,10.750296 4.7014,3.58526 7.56049,2.79629 8.82262,-2.434644 1.13341,-4.697413 2.75463,-6.850156 4.39523,-5.836211 1.23914,0.765834 1.46509,20.065375 0.4325,36.941835 -0.55055,8.99806 -0.9058,10.65074 -2.23443,10.39487 -1.14748,-0.22099 -2.16594,-3.18769 -3.72164,-10.84084 -1.178,-5.79513 -3.11618,-12.44649 -4.30706,-14.7808 -8.18076,-16.035614 -30.11416,-23.307521 -45.9431,-15.232194 -4.49656,2.293974 -11.43397,9.790534 -14.36508,15.522884 -6.77258,13.24511 -9.19422,28.57692 -8.51313,53.89803 0.43835,16.2969 0.89993,20.6195 3.09804,29.01266 2.65649,10.1434 5.94177,17.00487 10.52357,21.97899 8.33786,9.05181 24.12997,9.97316 28.42571,1.65842 1.58382,-3.06562 1.7639,-5.60986 1.45093,-20.5 -0.46903,-22.31545 -1.64628,-24.64834 -13.27803,-26.31219 -3.55924,-0.50913 -5.05237,-1.19986 -5.29284,-2.4485 -0.31268,-1.62362 1.82776,-1.73931 32.17935,-1.73931 20.79788,0 32.73909,0.36371 33.13811,1.00933 0.34309,0.55513 -0.74831,1.79263 -2.42533,2.75 -1.67702,0.95737 -3.38643,2.41567 -3.79869,3.24067 -0.41226,0.825 -0.9818,12.525 -1.26566,26 -0.42609,20.22772 -0.76313,24.5 -1.93276,24.5 -0.77916,0 -2.05588,-1.91766 -2.83715,-4.26146 -2.50487,-7.51462 -4.98613,-7.67998 -19.24618,-1.28261 -17.11472,7.67804 -30.02398,9.99489 -45,8.07622 z m 518.3198,-0.0707 c -17.23761,-3.07757 -28.66263,-14.4136 -32.9039,-32.64765 -1.92214,-8.26363 -2.15793,-26.48525 -0.4505,-34.81376 2.86776,-13.98834 11.30814,-25.48236 23.0043,-31.32699 8.23979,-4.11748 15.5696,-5.47015 26.9636,-4.97597 15.4271,0.66912 24.1728,5.96314 29.5144,17.86587 2.7446,6.11566 5.3599,20.39009 4.2607,23.25461 -0.5802,1.512 -3.0787,1.68248 -24.658,1.68248 h -24.0123 l -0.6299,2.50958 c -1.2202,4.86172 1.3634,20.63562 4.3334,26.45711 5.6536,11.0814 17.4383,14.6048 29.3524,8.77577 3.0624,-1.49831 7.0427,-4.34472 8.845,-6.32535 4.1505,-4.56114 6.1781,-3.41223 4.1181,2.33354 -3.7466,10.44993 -14.2996,21.69979 -23.6306,25.19095 -6.502,2.43273 -16.9096,3.30475 -24.1067,2.01981 z m 22.0043,-75.20061 c -0.2595,-14.36876 -3.9308,-24.76084 -8.7474,-24.76084 -2.972,0 -7.5435,5.14911 -9.0373,10.17914 -1.9783,6.66196 -3.9798,21.23078 -3.1969,23.27096 0.5276,1.375 2.176,1.57709 10.8896,1.33508 l 10.2679,-0.28518 -0.1759,-9.7392 z m -874.5158,73.11937 c -0.5528,-0.3409 -0.84442,-1.45411 -0.64804,-2.4738 0.25448,-1.32144 1.63147,-2.07153 4.79391,-2.6114 8.07674,-1.37881 7.51279,3.02485 7.8201,-61.06447 0.19763,-41.21619 -0.0453,-57.9707 -0.86953,-59.96047 -0.83574,-2.01765 -2.25625,-3.062624 -5.27427,-3.879909 -2.27176,-0.615195 -4.69297,-1.278021 -5.38047,-1.472946 -1.32501,-0.375676 -1.77553,-4.390312 -0.5,-4.455522 0.4125,-0.02109 18.075,-0.05431 39.25,-0.07382 41.7009,-0.03843 47.66289,0.522139 58.54631,5.504737 7.8283,3.58391 14.97428,10.648 17.02883,16.83365 2.18557,6.58013 1.41815,14.40314 -1.98206,20.20517 -4.97542,8.4899 -18.33911,17.94067 -28.34308,20.04416 -3.47145,0.72992 -4.47373,2.52445 -1.40996,2.52445 3.59479,0 17.14088,3.93238 22.85027,6.63336 6.87908,3.25432 14.65924,10.24055 17.64235,15.84202 1.70336,3.19845 2.14581,5.76948 2.15534,12.52462 0.0103,7.30755 -0.38234,9.30304 -2.79895,14.22425 -4.8106,9.79636 -13.32059,15.58789 -29.27872,19.92586 -7.47955,2.0332 -10.21624,2.15573 -50.25363,2.25009 -23.28882,0.0549 -42.7956,-0.17912 -43.3484,-0.52003 z m 72.22174,-7.13021 c 8.05354,-4.06852 10.8635,-10.52148 11.68179,-26.82678 0.40777,-8.12534 0.14742,-11.89556 -1.12329,-16.26665 -3.14404,-10.81512 -12.9355,-17.65657 -25.27004,-17.65657 h -4.3185 v 27.95295 c 0,18.85814 0.37237,28.77021 1.14449,30.46483 2.19377,4.81479 10.76022,5.93183 17.88555,2.33222 z m -7.0956,-67.71655 c 7.12701,-3.63593 10.82058,-16.50594 9.74906,-33.96997 -0.71528,-11.65779 -2.16805,-16.45197 -5.94964,-19.63397 -3.81714,-3.211917 -10.56556,-3.377138 -13.32887,-0.326334 -1.75713,1.939944 -1.92796,4.190864 -2.2009,29.000004 l -0.29591,26.89682 h 4.08575 c 2.24716,0 5.82039,-0.88495 7.94051,-1.96655 z M 693.127,228.27326 c -8.34035,-3.75198 -13.13171,-11.35525 -13.18692,-20.926 -0.0847,-14.67324 6.9258,-21.41804 31.18692,-30.00513 18.99743,-6.72403 20.71711,-9.04666 19.67588,-26.5745 -0.64985,-10.93954 -1.59477,-14.05211 -5.31172,-17.49686 -2.17214,-2.01308 -3.68819,-2.46169 -8.31905,-2.46169 -3.6401,0 -6.35621,0.55823 -7.60398,1.56282 -1.31454,1.05835 -1.55383,1.72544 -0.74131,2.06661 6.21872,2.61114 10.73202,10.52455 10.0501,17.6214 -0.58167,6.05361 -3.0553,9.57892 -8.77035,12.49917 -12.22576,6.24705 -24.91889,-0.95405 -24.96312,-14.16214 -0.0315,-9.41038 6.91515,-16.78744 19.98355,-21.22166 4.464,-1.51467 8.51383,-1.8662 21.5,-1.8662 18.27076,0 23.45517,1.20188 30.24157,7.01079 7.54171,6.45542 7.6657,7.1965 8.24506,49.27701 0.55968,40.65177 0.45329,40.00061 6.20818,37.99445 6.34899,-2.21327 4.69219,2.47733 -1.933,5.47256 -3.64714,1.64886 -7.21971,2.23733 -15.26181,2.5139 -9.43873,0.32461 -10.94735,0.12713 -14.92601,-1.9538 -2.65093,-1.3865 -5.12611,-3.65377 -6.17166,-5.65324 -2.47779,-4.73844 -2.40145,-4.72922 -6.36222,-0.76844 -6.03942,6.03941 -10.83075,7.93207 -21.04011,8.31122 -6.62582,0.24606 -9.92329,-0.0811 -12.5,-1.24027 z m 35.54545,-15.91873 c 2.4126,-2.41259 2.45429,-2.74159 2.43924,-19.25 -0.009,-9.65098 -0.44592,-17.43352 -1.0276,-18.29545 -0.83574,-1.23841 -1.81765,-0.62803 -5.63042,3.5 -8.21605,8.89541 -9.6115,11.70679 -10.11329,20.37501 -0.34567,5.97121 -0.0634,8.51443 1.22084,10.99779 2.80728,5.42868 9.07713,6.70676 13.11123,2.67265 z m -204.0693,15.59737 c -1.17491,-1.17492 -0.21852,-2.35252 3.00421,-3.69906 6.75829,-2.8238 6.61824,-1.8075 6.30321,-45.7399 l -0.28357,-39.54473 -2.34483,-2.49496 c -1.28966,-1.37223 -3.42716,-2.7666 -4.75,-3.09861 -1.32284,-0.33202 -2.40517,-1.202 -2.40517,-1.9333 0,-1.02909 3.89921,-1.48002 17.25,-1.99493 9.4875,-0.36591 19.6125,-0.94126 22.5,-1.27854 l 5.25,-0.61325 0.006,43.37723 c 0.004,27.61473 0.39281,44.77179 1.07123,47.21497 0.88589,3.19037 1.82267,4.1726 5.55345,5.82291 8.56393,3.78823 5.6439,4.3351 -23.48742,4.39884 -14.95479,0.0327 -27.4048,-0.15479 -27.66669,-0.41667 z m 62.96612,-0.0339 c -1.1368,-1.1368 -0.0979,-2.16768 4.02042,-3.98941 3.24347,-1.43474 4.67779,-2.74524 5.25,-4.7968 0.43302,-1.5525 0.78731,-19.77759 0.78731,-40.5002 0,-36.53524 -0.0628,-37.76303 -2.07139,-40.5 -1.13927,-1.55239 -3.50177,-3.46624 -5.25,-4.253 -6.49227,-2.92171 -3.89688,-3.73921 14.07139,-4.4322 9.4875,-0.36591 19.6125,-0.94126 22.5,-1.27854 l 5.25,-0.61325 v 4.56821 c 0,2.51252 0.38114,4.80377 0.84698,5.09168 0.46583,0.2879 2.15333,-0.86746 3.75,-2.56747 6.79228,-7.2319 21.16189,-10.20695 29.39766,-6.08641 9.1851,4.59552 11.68669,21.53155 4.45062,30.13113 -6.98675,8.30328 -23.11037,7.63468 -28.48574,-1.18123 -3.40402,-5.58277 -1.91362,-14.92805 3.25882,-20.43386 1.16758,-1.24284 1.81545,-2.56713 1.43971,-2.94287 -1.19599,-1.19599 -7.36738,2.42748 -9.98348,5.86171 -4.39462,5.76896 -4.82971,10.01816 -4.49023,43.85288 0.38394,38.26561 0.31202,38.00755 11.27995,40.47774 3.15993,0.71168 5.03571,1.66473 5.03571,2.55855 0,1.20064 -4.76106,1.42842 -30.30773,1.45001 -16.66925,0.0141 -30.50675,-0.17342 -30.75,-0.41667 z m 193.97886,-0.0211 c -1.1131,-1.11311 -0.0563,-2.15561 4.00764,-3.95327 3.66893,-1.62294 4.6116,-2.61749 5.49442,-5.79679 1.57902,-5.68651 1.46648,-82.54807 -0.12319,-84.13774 -0.66,-0.66 -3.135,-1.2 -5.5,-1.2 -3.15556,0 -4.3,-0.39922 -4.3,-1.5 0,-1.07079 1.08987,-1.5 3.80887,-1.5 5.95074,0 6.87705,-1.35343 7.52856,-11 1.04945,-15.53849 5.73334,-25.269286 15.45063,-32.098727 7.69907,-5.411021 14.88852,-7.401297 26.73555,-7.401297 9.33018,0 10.48962,0.229504 16.75981,3.317492 7.49016,3.688805 11.35903,8.204238 12.36594,14.432508 0.33344,2.0625 0.93894,3.750004 1.34556,3.750004 0.40662,0 1.85918,-1.687504 3.22792,-3.750004 8.2823,-12.480291 22.30377,-18.990095 38.72199,-17.977611 17.34583,1.069688 27.06061,8.948037 27.05143,21.937775 -0.007,9.82078 -6.05072,15.77935 -16.01186,15.7861 -7.55076,0.005 -11.87359,-2.41935 -14.84618,-8.3265 -1.86398,-3.70413 -2.22679,-5.59349 -1.72133,-8.964124 0.84398,-5.628068 3.79077,-10.305598 8.09069,-12.842611 3.98374,-2.350465 3.74244,-3.863029 -0.61626,-3.863029 -4.78688,0 -8.47812,2.510043 -10.26737,6.981819 -2.366,5.913217 -2.40087,38.506075 -0.0422,39.411195 0.86998,0.33385 5.36998,0.60699 10,0.60699 6.81619,0 8.41821,0.28546 8.41821,1.5 0,1.21454 -1.60202,1.5 -8.41821,1.5 -4.63002,0 -9.13002,0.27314 -10,0.60699 -1.40631,0.53965 -1.58179,5.09372 -1.58179,41.04966 0,33.16673 0.258,40.94158 1.43406,43.21584 2.00709,3.88129 3.78956,5.13667 9.28317,6.53811 2.9209,0.74512 4.78277,1.77858 4.78277,2.65475 0,2.01814 -60.19443,2.17334 -60.9681,0.15719 -0.44112,-1.14954 0.48598,-1.70286 6.26325,-3.73815 0.71234,-0.25095 1.94984,-2.02315 2.75,-3.93821 1.19275,-2.85456 1.45489,-10.85592 1.45489,-44.40707 0,-45.56551 0.57583,-42.13911 -7.08179,-42.13911 -2.81619,0 -3.91821,-0.42189 -3.91821,-1.5 0,-1.09564 1.14569,-1.50413 4.25,-1.51531 2.3375,-0.008 4.75085,-0.34592 5.363,-0.75 0.61215,-0.40408 1.438,-5.00969 1.83522,-10.23469 l 0.72221,-9.5 -2.83521,2.62781 c -4.31256,3.99708 -6.66936,4.87219 -13.1216,4.87219 -4.48783,0 -6.73894,-0.54852 -9.31574,-2.26993 -9.25316,-6.18152 -9.13027,-19.430965 0.25015,-26.969276 2.11858,-1.70254 3.85197,-3.528737 3.85197,-4.058215 0,-1.381935 -8.66773,-0.223035 -10.65436,1.424518 -3.55142,2.945264 -4.57269,7.996018 -5.02933,24.872903 -0.28092,10.38271 -0.0662,17.05612 0.57915,18 0.74009,1.08243 3.61159,1.63919 10.31507,2 5.19298,0.27951 9.28947,0.94098 9.28947,1.5 0,0.57209 -3.85122,1.11846 -9,1.27683 -7.00111,0.21535 -9.27762,0.64648 -10.25,1.94113 -1.46685,1.95302 -1.74897,71.7482 -0.31991,79.14585 1.08017,5.59163 4.46823,8.93482 10.6539,10.5128 3.02084,0.77062 4.91601,1.80715 4.91601,2.68874 0,1.21457 -4.65258,1.43534 -30.32887,1.43912 -16.68087,0.002 -30.51837,-0.18504 -30.75,-0.41667 z M 541.29584,110.38868 c -8.32889,-2.724 -11.61142,-7.78421 -10.95314,-16.884864 0.38602,-5.336686 0.82212,-6.341298 4.02824,-9.279482 4.48261,-4.108011 10.31153,-5.731219 18.73414,-5.216993 7.89274,0.481876 13.34684,2.941189 15.87498,7.158197 5.22226,8.710876 2.54041,18.768282 -6.21956,23.324482 -4.08853,2.12651 -16.16453,2.63209 -21.46466,0.89866 z"
       id="path126"
       inkscape:connector-curvature="0" />
    <path
       style="fill:#c87e4d;stroke-width:2.5;stroke-miterlimit:4;stroke-dasharray:none;stroke:none;stroke-opacity:1"
       d="m 275.36286,229.74925 c -13.00146,-2.56333 -24.83507,-12.15043 -29.08672,-23.56486 -6.47299,-17.37808 -5.33836,-43.07035 2.54146,-57.54818 5.16991,-9.49882 16.08364,-17.12388 28.39717,-19.84016 8.2048,-1.80992 24.24931,-0.90695 29.91223,1.68344 11.00584,5.03439 17.32461,16.41636 18.22555,32.82959 l 0.27445,5 -24.2354,0.26775 -24.2354,0.26774 -0.65433,2.60704 c -1.10443,4.4004 0.3842,18.63851 2.55544,24.44166 4.94532,13.21754 17.74188,18.67878 30.92305,13.19715 1.84434,-0.767 5.5159,-3.41736 8.15901,-5.88968 2.64311,-2.47232 5.07303,-4.0625 5.39983,-3.53373 0.96081,1.55463 -2.80074,9.18029 -7.71586,15.64207 -9.59771,12.61789 -23.86907,17.71127 -40.46048,14.44017 z m 23.14479,-74.94017 c -0.13541,-13.04781 -2.06645,-19.93973 -6.51589,-23.2554 -2.35107,-1.75198 -2.94239,-1.81653 -5.48358,-0.59856 -3.90207,1.87021 -7.16693,8.23051 -8.91516,17.36771 -1.55716,8.13851 -1.925,16.69393 -0.76754,17.8514 0.38417,0.38417 5.44667,0.57167 11.25,0.41667 L 298.627,166.30908 Z M 107.127,227.00255 c 0,-0.52582 2.01766,-1.46409 4.48369,-2.08505 8.44947,-2.1276 8.01631,1.33649 8.01631,-64.10897 0,-65.445031 0.43325,-61.980254 -8.01631,-64.107878 -10.29994,-2.593554 -3.99708,-3.06221 35.26631,-2.622262 42.95956,0.481363 46.79401,0.901968 57.65249,6.32398 10.57523,5.28058 15.54454,12.59328 15.56616,22.90671 0.029,13.83594 -12.91583,26.0326 -32.96865,31.06315 -3.575,0.89684 -6.90259,2.01211 -7.39464,2.47838 -0.97174,0.92081 -1.05837,0.89745 14.1661,3.81898 17.2934,3.31855 29.39376,10.65216 34.30065,20.78844 1.83697,3.79469 2.10533,5.74877 1.74149,12.68089 -0.7044,13.42049 -5.87319,20.98199 -18.3136,26.79126 -13.0288,6.08402 -14.13432,6.20375 -61.25,6.63372 -27.11601,0.24745 -43.25,0.038 -43.25,-0.56135 z m 71.90122,-3.64239 c 8.65433,-4.47533 12.52079,-14.20725 12.53515,-31.55108 0.008,-9.84252 -0.31826,-12.22065 -2.26465,-16.5 -4.33313,-9.52684 -11.72702,-14.58368 -23.42928,-16.0238 -9.13007,-1.12357 -8.74331,-2.38059 -8.73686,28.39624 0.006,27.9873 0.61049,33.04481 4.25579,35.59808 2.83814,1.9879 13.85416,2.03822 17.63985,0.0806 z M 172.627,154.98699 c 7.31685,-4.14295 11.67792,-21.79037 9.59433,-38.82427 -1.71557,-14.02524 -6.23797,-20.353644 -14.54512,-20.353644 -3.39033,0 -8.06671,2.411246 -9.14044,4.713014 -0.45848,0.98285 -0.99637,13.62569 -1.19531,28.09521 -0.27974,20.34581 -0.0715,26.65796 0.91903,27.85142 1.60016,1.92808 9.84763,1.07751 14.36751,-1.48173 z"
       id="path124"
       inkscape:connector-curvature="0" />
  </g>
</svg>
